<svg width="18" height="16" viewBox="0 0 18 16" fill="none" xmlns="http://www.w3.org/2000/svg">
<path fill-rule="evenodd" clip-rule="evenodd" d="M12.2082 0.0839153C12.734 0.0839153 13.259 0.158082 13.7582 0.325582C16.834 1.32558 17.9423 4.70058 17.0165 7.65058C16.4915 9.15808 15.6332 10.5339 14.509 11.6581C12.8998 13.2164 11.134 14.5997 9.23315 15.7914L9.02482 15.9172L8.80815 15.7831C6.90065 14.5997 5.12482 13.2164 3.50065 11.6497C2.38399 10.5256 1.52482 9.15808 0.991487 7.65058C0.0498205 4.70058 1.15815 1.32558 4.26732 0.308082C4.50899 0.224749 4.75815 0.166415 5.00815 0.133915H5.10815C5.34232 0.0997486 5.57482 0.0839153 5.80815 0.0839153H5.89982C6.42482 0.0997486 6.93315 0.191415 7.42565 0.358915H7.47482C7.50815 0.374749 7.53315 0.392249 7.54982 0.408082C7.73399 0.467249 7.90815 0.533915 8.07482 0.625582L8.39149 0.767249C8.46801 0.808058 8.55389 0.870414 8.62812 0.924306C8.67515 0.958452 8.7175 0.989199 8.74982 1.00892C8.76342 1.01694 8.77724 1.02501 8.79118 1.03314C8.86263 1.07485 8.93706 1.1183 8.99982 1.16642C9.92565 0.458915 11.0498 0.0755819 12.2082 0.0839153ZM14.4248 6.08392C14.7665 6.07475 15.0582 5.80058 15.0832 5.44975V5.35058C15.1082 4.18308 14.4007 3.12558 13.3248 2.71725C12.9832 2.59975 12.6082 2.78392 12.4832 3.13391C12.3665 3.48392 12.5498 3.86725 12.8998 3.99142C13.434 4.19141 13.7915 4.71725 13.7915 5.29975V5.32558C13.7757 5.51642 13.8332 5.70058 13.9498 5.84225C14.0665 5.98392 14.2415 6.06642 14.4248 6.08392Z" fill="#E74C3C"/>
</svg>
