<svg width="20" height="21" viewBox="0 0 20 21" fill="none" xmlns="http://www.w3.org/2000/svg">
<path d="M17.1833 7.54167C16.3083 3.69167 12.95 1.95833 9.99999 1.95833C9.99999 1.95833 9.99999 1.95833 9.99165 1.95833C7.04999 1.95833 3.68332 3.68333 2.80832 7.53333C1.83332 11.8333 4.46665 15.475 6.84999 17.7667C7.73332 18.6167 8.86665 19.0417 9.99999 19.0417C11.1333 19.0417 12.2667 18.6167 13.1417 17.7667C15.525 15.475 18.1583 11.8417 17.1833 7.54167ZM9.99999 11.7167C8.54999 11.7167 7.37499 10.5417 7.37499 9.09167C7.37499 7.64167 8.54999 6.46667 9.99999 6.46667C11.45 6.46667 12.625 7.64167 12.625 9.09167C12.625 10.5417 11.45 11.7167 9.99999 11.7167Z" fill="#4C4DDC"/>
</svg>
